<?xml version="1.0" standalone="no"?>
<!DOCTYPE svg PUBLIC "-//W3C//DTD SVG 20010904//EN"
 "http://www.w3.org/TR/2001/REC-SVG-20010904/DTD/svg10.dtd">
<svg version="1.0" xmlns="http://www.w3.org/2000/svg"
 width="48.000000pt" height="48.000000pt" viewBox="0 0 48.000000 48.000000"
 preserveAspectRatio="xMidYMid meet">

<g transform="translate(0.000000,48.000000) scale(0.100000,-0.100000)"
fill="#000000" stroke="none">
<path d="M0 240 l0 -240 240 0 240 0 0 240 0 240 -240 0 -240 0 0 -240z m250
195 c0 -18 17 -20 22 -3 7 21 37 1 31 -21 -5 -20 -43 -31 -43 -12 0 5 -8 7
-19 4 -14 -4 -18 0 -16 19 3 28 3 28 15 28 6 0 10 -7 10 -15z m-40 -19 c0 -18
-7 -26 -27 -31 -16 -3 -39 -15 -52 -25 -20 -17 -22 -24 -12 -50 6 -18 6 -28 1
-25 -6 4 -10 12 -10 20 0 7 -12 16 -26 19 -33 9 -29 42 5 38 20 -2 22 0 11 13
-17 21 14 32 37 14 15 -13 15 -12 4 9 -6 12 -8 22 -2 22 5 0 11 -6 14 -14 9
-23 49 -8 42 15 -4 11 -2 19 4 19 6 0 11 -11 11 -24z m131 0 c15 9 10 -23 -6
-36 -12 -10 -16 -9 -21 4 -3 9 -3 24 1 34 5 11 9 13 12 4 3 -6 9 -10 14 -6z
m49 -36 c0 -5 7 -16 16 -24 14 -14 14 -18 0 -31 -19 -19 -22 -19 -30 1 -4 9
-1 23 5 30 8 10 8 14 0 14 -6 0 -11 -6 -12 -12 0 -10 -2 -10 -6 0 -2 6 -9 10
-14 6 -13 -8 -11 10 2 23 12 12 39 7 39 -7z m-99 -30 c13 -11 17 -18 9 -15
-32 11 -96 12 -115 2 -20 -10 -20 -10 -1 12 24 27 76 28 107 1z m-111 -51 c0
-4 -8 -10 -17 -13 -10 -4 -14 -4 -10 0 4 4 -3 19 -15 32 l-23 25 33 -19 c17
-10 32 -21 32 -25z m162 18 c-12 -13 -19 -27 -15 -31 4 -4 0 -4 -10 0 -24 9
-21 21 11 38 37 21 39 20 14 -7z m-136 -15 c-2 -4 4 -18 14 -32 15 -20 20 -22
34 -11 9 7 16 22 16 32 0 10 5 21 10 24 6 3 10 -2 10 -13 0 -10 18 -37 39 -60
35 -37 37 -42 20 -47 -10 -4 -18 -12 -16 -18 1 -7 -4 -11 -10 -9 -7 1 -13 -5
-13 -14 0 -9 -7 -14 -17 -12 -10 2 -26 -5 -37 -16 -19 -19 -19 -19 -35 1 -9
11 -24 19 -34 17 -9 -1 -17 2 -17 7 0 5 -7 9 -15 9 -8 0 -15 7 -15 15 0 9 -6
18 -14 21 -10 4 -6 13 15 37 16 18 35 44 41 59 7 15 16 24 20 22 5 -3 6 -9 4
-12z m48 2 c4 -10 2 -13 -6 -8 -8 5 -9 1 -4 -12 7 -18 6 -18 -10 -2 -9 9 -13
21 -10 27 10 16 23 14 30 -5z m112 -10 c-4 -9 -9 -15 -11 -12 -3 3 -3 13 1 22
4 9 9 15 11 12 3 -3 3 -13 -1 -22z m-276 -54 c0 -5 -7 -10 -16 -10 -8 0 -12 5
-9 10 3 6 10 10 16 10 5 0 9 -4 9 -10z m-25 -40 c3 -6 -4 -10 -17 -10 -18 0
-20 2 -8 10 19 12 18 12 25 0z m373 -18 c2 -7 -6 -12 -17 -12 -21 0 -27 11
-14 24 9 9 26 2 31 -12z m-338 -48 c7 -19 17 -24 42 -24 18 0 48 -4 65 -9 19
-6 47 -6 65 -1 36 9 154 22 126 14 -10 -3 -18 -9 -18 -13 0 -5 -15 -11 -32
-14 -18 -3 -42 -9 -53 -13 -16 -6 -18 -5 -10 7 6 8 2 7 -7 -3 -15 -17 -20 -17
-57 -5 -29 10 -41 11 -44 3 -3 -8 -8 -7 -18 2 -7 6 -23 12 -36 12 -13 0 -23 5
-23 10 0 6 -7 10 -15 10 -8 0 -15 6 -15 14 0 8 -6 17 -12 19 -10 4 -10 8 2 16
18 12 29 6 40 -25z m315 6 c-3 -5 -18 -10 -33 -10 -21 0 -24 2 -12 10 20 13
53 13 45 0z"/>
<path d="M170 240 c0 -5 6 -10 13 -10 17 0 53 -38 44 -46 -4 -4 -14 -1 -24 7
-14 11 -13 9 2 -13 11 -15 27 -27 35 -27 8 0 24 12 35 27 14 20 15 24 3 14
-15 -12 -20 -11 -36 5 -10 10 -22 26 -25 36 -7 18 -47 24 -47 7z"/>
<path d="M255 240 c-12 -19 5 -28 29 -17 13 7 22 15 20 19 -7 11 -42 10 -49
-2z"/>
</g>
</svg>
